HIERARCHY
ROOT Hips
{
 OFFSET 0.000000 0.000000 0.000000
 CHANNELS 6 Xposition Yposition Zposition Yrotation Xrotation Zrotation
 JOINT Chest
 {
  OFFSET 0.000000 9.588913 -0.003946
  CHANNELS 3 Yrotation Xrotation Zrotation
  JOINT Chest2
  {
   OFFSET 0.000000 9.541882 0.008053
   CHANNELS 3 Yrotation Xrotation Zrotation
   JOINT Chest3
   {
    OFFSET 0.000000 9.501360 0.000000
    CHANNELS 3 Yrotation Xrotation Zrotation
    JOINT Chest4
    {
     OFFSET 0.000000 9.491660 0.000000
     CHANNELS 3 Yrotation Xrotation Zrotation
     JOINT Neck
     {
      OFFSET 0.000000 14.331917 0.000000
      CHANNELS 3 Yrotation Xrotation Zrotation
      JOINT Head
      {
       OFFSET 0.000000 8.884799 0.017034
       CHANNELS 3 Yrotation Xrotation Zrotation
       End Site
       {
        OFFSET 0.000000 16.896195 0.008993
       }
      }
     }
     JOINT RightCollar
     {
      OFFSET -2.923010 9.499495 0.000000
      CHANNELS 3 Yrotation Xrotation Zrotation
      JOINT RightShoulder
      {
       OFFSET -13.795216 0.000000 0.000000
       CHANNELS 3 Yrotation Xrotation Zrotation
       JOINT RightElbow
       {
        OFFSET -30.272209 0.000000 0.000000
        CHANNELS 3 Yrotation Xrotation Zrotation
        JOINT RightWrist
        {
         OFFSET -24.478199 0.000000 0.000000
         CHANNELS 3 Yrotation Xrotation Zrotation
         End Site
         {
          OFFSET -18.090752 0.000000 0.000000
         }
        }
       }
      }
     }
     JOINT LeftCollar
     {
      OFFSET 2.923010 9.499495 0.000000
      CHANNELS 3 Yrotation Xrotation Zrotation
      JOINT LeftShoulder
      {
       OFFSET 13.795216 0.000000 0.000000
       CHANNELS 3 Yrotation Xrotation Zrotation
       JOINT LeftElbow
       {
        OFFSET 30.272209 0.000000 0.000000
        CHANNELS 3 Yrotation Xrotation Zrotation
        JOINT LeftWrist
        {
         OFFSET 24.478199 0.000000 0.000000
         CHANNELS 3 Yrotation Xrotation Zrotation
         End Site
         {
          OFFSET 18.090752 0.000000 0.000000
         }
        }
       }
      }
     }
    }
   }
  }
 }
 JOINT RightHip
 {
  OFFSET -7.826875 0.019532 0.001973
  CHANNELS 3 Yrotation Xrotation Zrotation
  JOINT RightKnee
  {
   OFFSET 0.000000 -40.546152 -0.001885
   CHANNELS 3 Yrotation Xrotation Zrotation
   JOINT RightAnkle
   {
    OFFSET 0.000000 -39.417092 -0.003189
    CHANNELS 3 Yrotation Xrotation Zrotation
    JOINT RightToe
    {
     OFFSET 0.000000 -7.579396 17.243563
     CHANNELS 3 Yrotation Xrotation Zrotation
     End Site
     {
      OFFSET 0.000000 -1.500329 6.694466
     }
    }
   }
  }
 }
 JOINT LeftHip
 {
  OFFSET 7.826875 0.019532 0.001973
  CHANNELS 3 Yrotation Xrotation Zrotation
  JOINT LeftKnee
  {
   OFFSET 0.000000 -40.546152 -0.001885
   CHANNELS 3 Yrotation Xrotation Zrotation
   JOINT LeftAnkle
   {
    OFFSET 0.000000 -39.417092 -0.003189
    CHANNELS 3 Yrotation Xrotation Zrotation
    JOINT LeftToe
    {
     OFFSET 0.000000 -7.579396 17.243563
     CHANNELS 3 Yrotation Xrotation Zrotation
     End Site
     {
      OFFSET 0.000000 -1.500329 6.694466
     }
    }
   }
  }
 }
}
MOTION
Frames: 11
Frame Time: 0.008333
-10.479106 88.735617 -26.616730 142.086782 -7.310673 -0.830014 -2.250519 0.998621 -2.080905 -1.262637 0.580178 -1.237728 -1.580252 0.720939 -1.549153 -1.262638 0.580178 -1.237727 30.016528 26.227866 -4.183106 39.789657 9.159034 -11.815165 12.543796 -7.210746 -1.389194 -4.415451 -33.069073 72.702982 75.257196 -33.366244 13.383099 10.120544 -16.403078 -19.864584 -4.250605 -1.110962 5.592035 -17.382598 -44.358585 -86.164211 -36.030802 -28.559005 -37.173918 -12.834856 -25.957548 24.544586 -6.919544 2.402638 -3.490995 9.081412 3.831803 0.957155 9.165801 -0.249764 4.088819 -0.039316 0.133425 -0.002436 1.762246 13.017876 -1.363064 3.674589 4.265276 1.580975 10.854701 -10.266974 -0.474333 0.013704 -0.090070 -0.002002
-10.534319 88.736346 -26.623155 142.250824 -7.297173 -0.816649 -2.262182 1.012881 -2.085211 -1.270380 0.587512 -1.237600 -1.589956 0.730080 -1.549031 -1.270380 0.587511 -1.237600 30.006270 26.244315 -4.185185 39.774040 9.178764 -11.814099 12.544947 -7.189938 -1.396631 -4.486190 -32.980865 72.608517 75.224684 -33.483446 13.545538 10.178597 -16.405085 -19.783991 -4.220728 -1.104208 5.546024 -17.318918 -44.125729 -86.113506 -35.863450 -28.469847 -37.298819 -12.818722 -25.960879 24.516454 -6.998328 2.367104 -3.540829 9.070229 3.869789 0.936166 9.108580 -0.268113 4.128104 -0.040704 0.127570 0.000583 1.711892 12.961452 -1.374936 3.650730 4.291593 1.531212 10.748421 -10.266160 -0.408378 0.015945 -0.090273 0.000927
-10.591439 88.737536 -26.629694 142.419787 -7.271464 -0.799471 -2.276467 1.021902 -2.091671 -1.279675 0.592079 -1.238606 -1.601592 0.735754 -1.550320 -1.279675 0.592079 -1.238606 29.996572 26.261547 -4.186163 39.758929 9.199533 -11.811659 12.551263 -7.170843 -1.396331 -4.558106 -32.903068 72.523165 75.191116 -33.592444 13.694801 10.248315 -16.403808 -19.712485 -4.197870 -1.092222 5.499191 -17.246342 -43.894901 -86.075155 -35.696236 -28.371974 -37.415965 -12.803914 -25.961142 24.492907 -7.083466 2.316865 -3.589676 9.061906 3.914226 0.914174 9.026589 -0.289126 4.165691 -0.044416 0.122728 0.001689 1.678987 12.896114 -1.383161 3.620301 4.310190 1.474776 10.627136 -10.257580 -0.340071 0.018190 -0.092217 0.005469
-10.648816 88.739126 -26.636348 142.584701 -7.239605 -0.784035 -2.291907 1.029431 -2.099042 -1.289373 0.595992 -1.240285 -1.613730 0.740606 -1.552448 -1.289373 0.595991 -1.240285 29.986805 26.277233 -4.186303 39.743415 9.217889 -11.808290 12.568804 -7.157126 -1.388186 -4.639061 -32.838293 72.448499 75.154019 -33.679662 13.831841 10.327519 -16.407934 -19.648443 -4.175871 -1.079767 5.459124 -17.167232 -43.664195 -86.043400 -35.530398 -28.268908 -37.530610 -12.781825 -25.954464 24.465008 -7.167844 2.255837 -3.636167 9.054318 3.966425 0.892635 8.949037 -0.311412 4.203267 -0.047378 0.116058 0.002517 1.667766 12.828346 -1.385850 3.583172 4.321840 1.417184 10.506253 -10.243807 -0.273766 0.021183 -0.094656 0.011517
-10.705458 88.740993 -26.643504 142.744746 -7.208044 -0.773097 -2.308246 1.038718 -2.106998 -1.299080 0.601120 -1.242072 -1.625885 0.746977 -1.554716 -1.299081 0.601120 -1.242072 29.975085 26.289394 -4.188197 39.725425 9.230985 -11.807139 12.591275 -7.150086 -1.375222 -4.734699 -32.788581 72.387759 75.108648 -33.740686 13.972598 10.409943 -16.415776 -19.602859 -4.152981 -1.072221 5.428318 -17.080277 -43.433288 -86.020190 -35.358918 -28.163530 -37.646591 -12.751850 -25.940541 24.423204 -7.252139 2.190551 -3.679164 9.047013 4.027219 0.872835 8.881734 -0.335576 4.240352 -0.048746 0.107042 0.003085 1.668465 12.764682 -1.385389 3.539121 4.326641 1.361252 10.402606 -10.226035 -0.209061 0.025023 -0.096780 0.017115
-10.760477 88.743019 -26.651699 142.901504 -7.184614 -0.769112 -2.324430 1.051536 -2.114141 -1.308266 0.608547 -1.242870 -1.637394 0.756225 -1.555754 -1.308266 0.608546 -1.242869 29.960063 26.297836 -4.193642 39.703452 9.238487 -11.810255 12.608852 -7.142529 -1.363725 -4.846797 -32.755833 72.341124 75.055810 -33.777718 14.130440 10.484340 -16.419704 -19.587264 -4.130141 -1.067426 5.401247 -16.993357 -43.204443 -86.001540 -35.176238 -28.064911 -37.764626 -12.712362 -25.925373 24.363653 -7.337490 2.129220 -3.717518 9.039859 4.097683 0.854346 8.828466 -0.362546 4.277133 -0.048477 0.094975 0.003686 1.667453 12.713867 -1.382706 3.490239 4.323627 1.308382 10.322934 -10.205503 -0.145076 0.029371 -0.097514 0.020945
-10.813959 88.744998 -26.661123 143.054220 -7.172779 -0.770924 -2.339472 1.068028 -2.119546 -1.316515 0.618250 -1.241940 -1.647738 0.768329 -1.554642 -1.316516 0.618250 -1.241940 29.941883 26.302765 -4.203167 39.677911 9.240875 -11.818318 12.619714 -7.128546 -1.359599 -4.969708 -32.737675 72.301909 75.003200 -33.792245 14.299181 10.543437 -16.420611 -19.594893 -4.111088 -1.061201 5.372145 -16.909143 -42.981414 -85.985069 -34.978015 -27.981344 -37.885340 -12.664976 -25.913534 24.290950 -7.419554 2.074892 -3.750807 9.031759 4.179670 0.835250 8.783524 -0.393769 4.313183 -0.047187 0.080521 0.004897 1.658402 12.678580 -1.376456 3.440699 4.316587 1.259604 10.246093 -10.184709 -0.081588 0.032210 -0.096896 0.022083
-10.868594 88.746637 -26.672768 143.202380 -7.170789 -0.761790 -2.352384 1.088217 -2.135335 -1.324727 0.629593 -1.240431 -1.658039 0.782486 -1.552811 -1.324727 0.629593 -1.240431 29.922507 26.303289 -4.216207 39.651730 9.237505 -11.831088 12.628452 -7.112658 -1.362109 -5.089999 -32.722778 72.259276 74.964542 -33.791614 14.460121 10.586505 -16.421243 -19.607975 -4.102356 -1.053512 5.339968 -16.823405 -42.768614 -85.970223 -34.762377 -27.911410 -38.005976 -12.617042 -25.907221 24.217517 -7.493445 2.024823 -3.797482 9.023001 4.271477 0.814992 8.734697 -0.420065 4.350299 -0.042718 0.055097 0.007938 1.637088 12.654229 -1.382767 3.393428 4.311949 1.214337 10.163285 -10.181998 -0.018151 0.032428 -0.079738 0.020802
-10.922527 88.747743 -26.683586 143.349989 -7.173753 -0.761234 -2.366723 1.110239 -2.140021 -1.332801 0.642806 -1.239920 -1.668176 0.798976 -1.552234 -1.332801 0.642806 -1.239920 29.902590 26.298581 -4.231280 39.625424 9.227086 -11.846876 12.637366 -7.103041 -1.367272 -5.189830 -32.702957 72.204207 74.950766 -33.785324 14.591949 10.617510 -16.420036 -19.611842 -4.106063 -1.046562 5.306791 -16.745186 -42.570095 -85.949258 -34.535583 -27.857628 -38.121882 -12.566698 -25.907581 24.155861 -7.559456 1.974834 -3.831091 9.013529 4.377236 0.794865 8.675162 -0.467637 4.383745 -0.041018 0.045087 0.009914 1.605338 12.639371 -1.384086 3.349888 4.296583 1.172242 10.077846 -10.155505 0.044851 0.032003 -0.079368 0.020085
-10.977513 88.748233 -26.694212 143.492827 -7.180910 -0.756893 -2.379418 1.134663 -2.146208 -1.340116 0.657550 -1.240637 -1.677372 0.817377 -1.553198 -1.340116 0.657550 -1.240637 29.882454 26.289401 -4.247455 39.599171 9.210577 -11.864479 12.644957 -7.103215 -1.375973 -5.257308 -32.674907 72.134845 74.965723 -33.782420 14.680496 10.640697 -16.413762 -19.598451 -4.118440 -1.039063 5.272958 -16.684912 -42.386529 -85.914255 -34.302696 -27.823421 -38.237744 -12.507291 -25.915440 24.108497 -7.614981 1.922473 -3.866709 9.002301 4.494864 0.776155 8.602345 -0.520391 4.416214 -0.040759 0.036308 0.010517 1.567451 12.633874 -1.395061 3.311865 4.269305 1.134462 9.999700 -10.122305 0.105809 0.032129 -0.078464 0.021015
-11.033232 88.748138 -26.703791 143.629398 -7.190784 -0.751787 -2.390065 1.160875 -2.152360 -1.346372 0.673185 -1.241982 -1.685250 0.836895 -1.554948 -1.346373 0.673185 -1.241982 29.862599 26.278121 -4.264232 39.573590 9.191378 -11.883113 12.649157 -7.112807 -1.389044 -5.291999 -32.638547 72.054908 75.005382 -33.786192 14.725897 10.659858 -16.404908 -19.570030 -4.138418 -1.029800 5.235864 -16.639844 -42.214363 -85.866143 -34.066046 -27.804730 -38.357858 -12.441160 -25.929679 24.069679 -7.662083 1.864889 -3.905285 8.989317 4.623602 0.760749 8.539087 -0.576549 4.448721 -0.039897 0.027278 0.011108 1.527726 12.632945 -1.411937 3.279573 4.235672 1.098512 9.935703 -10.085658 0.165296 0.033386 -0.076610 0.023492
